<?xml version="1.0" encoding="iso-8859-1"?>
<!-- Generator: Adobe Illustrator 19.0.0, SVG Export Plug-In . SVG Version: 6.00 Build 0)  -->
<svg version="1.1" id="Capa_1" xmlns="http://www.w3.org/2000/svg" xmlns:xlink="http://www.w3.org/1999/xlink" x="0px" y="0px"
	 viewBox="0 0 480 480" style="enable-background:new 0 0 480 480;" xml:space="preserve">
<g>
	<g>
		<g>
			<path d="M193.518,174.328l-6.56-14.592c-17.407,7.764-31.787,21.023-40.936,37.744l14.008,7.712
				C167.52,191.521,179.283,180.68,193.518,174.328z"/>
			<path d="M135.03,240.936l16-0.144c-0.046-5.581,0.553-11.148,1.784-16.592l-15.6-3.536
				C135.706,227.314,134.973,234.117,135.03,240.936z"/>
			<rect x="407.03" width="16" height="352"/>
			<rect x="23.03" width="16" height="480"/>
			<path d="M444.686,402.344l-88-88c-3.124-3.123-8.188-3.123-11.312,0l-10.344,10.344l-14.784-14.784
				c38.39-53.79,25.906-128.516-27.883-166.906s-128.516-25.906-166.906,27.883S99.55,299.397,153.34,337.787
				c41.84,29.862,98.077,29.664,139.706-0.491L307.718,352l-10.344,10.344c-3.123,3.124-3.123,8.188,0,11.312l88,88
				c16.379,16.379,42.933,16.379,59.312,0C461.065,445.277,461.065,418.723,444.686,402.344z M200.861,341.594
				c-22.464-4.915-42.665-17.141-57.439-34.762h0.032c-10.824-12.847-18.38-28.121-22.024-44.52c-3.163-14.69-3.163-29.886,0-44.576
				c12.521-56.115,68.162-91.455,124.277-78.934c39.369,8.784,70.12,39.521,78.923,78.886c3.163,14.69,3.163,29.886,0,44.576
				C312.359,318.348,256.945,353.866,200.861,341.594z M306.342,328l4.688-4.688L323.718,336l-4.688,4.688L306.342,328z
				 M314.342,368l10.344-10.344l16-16l10.344-10.344L363.718,344l-36.688,36.688L314.342,368z M433.374,450.344
				c-10.139,10.113-26.549,10.113-36.688,0L338.342,392l36.688-36.688l58.344,58.344
				C443.487,423.795,443.487,440.205,433.374,450.344z"/>
			<rect x="143.03" y="16" width="248" height="16"/>
			<rect x="63.03" y="64" width="328" height="16"/>
			<rect x="295.03" y="112" width="96" height="16"/>
			<rect x="63.03" y="112" width="88" height="16"/>
			<rect x="343.03" y="160" width="48" height="16"/>
			<rect x="63.03" y="160" width="40" height="16"/>
			<rect x="359.03" y="208" width="32" height="16"/>
			<rect x="63.03" y="208" width="24" height="16"/>
			<rect x="359.03" y="256" width="32" height="16"/>
			<rect x="63.03" y="256" width="24" height="16"/>
			<rect x="375.03" y="304" width="16" height="16"/>
			<rect x="63.03" y="304" width="40" height="16"/>
			<rect x="63.03" y="352" width="88" height="16"/>
			<rect x="151.03" y="400" width="152" height="16"/>
			<rect x="63.03" y="448" width="288" height="16"/>
			<rect x="207.03" y="176" width="72" height="16"/>
			<rect x="167.03" y="288" width="112" height="16"/>
			<rect x="167.03" y="232" width="144" height="16"/>
		</g>
	</g>
</g>
<g>
</g>
<g>
</g>
<g>
</g>
<g>
</g>
<g>
</g>
<g>
</g>
<g>
</g>
<g>
</g>
<g>
</g>
<g>
</g>
<g>
</g>
<g>
</g>
<g>
</g>
<g>
</g>
<g>
</g>
</svg>
