<?xml version="1.0" encoding="iso-8859-1"?>
<!-- Generator: Adobe Illustrator 19.0.0, SVG Export Plug-In . SVG Version: 6.00 Build 0)  -->
<svg version="1.1" id="Capa_1" xmlns="http://www.w3.org/2000/svg" xmlns:xlink="http://www.w3.org/1999/xlink" x="0px" y="0px"
	 viewBox="0 0 480 480" style="enable-background:new 0 0 480 480;" xml:space="preserve">
<g>
	<g>
		<path d="M437.655,466.344l-104-104c-1.5-1.5-3.531-2.344-5.656-2.344h-0.966c40.103-43.998,41.385-111.125,1.552-156.625
			L297.63,168h6.369c4.422,0,8-3.578,8-8V56c0-4.422-3.578-8-8-8h-19.055l18.211-36.422c1.242-2.477,1.109-5.422-0.352-7.781
			S298.773,0,295.999,0h-112c-2.773,0-5.344,1.438-6.805,3.797s-1.594,5.305-0.352,7.781l13.422,26.844L164.687,64h-20.688h-96
			c-4.422,0-8,3.578-8,8v88c0,4.422,3.578,8,8,8h96h38.371l-30.957,35.383c-18.813,21.539-29.172,49.07-29.172,77.5
			c0,29.222,11.173,57.535,30.752,79.117h-24.995c-4.422,0-8,3.578-8,8v16c0,2.516,1.188,4.891,3.203,6.398l96,72
			c1.859,1.398,4.273,1.922,6.531,1.414l67.711-15.047l28.898,28.891c1.5,1.5,3.531,2.344,5.656,2.344h104
			c3.234,0,6.156-1.945,7.391-4.938C440.632,472.07,439.944,468.633,437.655,466.344z M135.999,152h-80V80h80V152z M283.054,16
			l-16,32h-19.406l0.344-7.641c0.102-2.18-0.703-4.313-2.211-5.891S242.187,32,239.999,32h-35.055l-8-16H283.054z M151.999,152V80
			h16c2.125,0,4.156-0.844,5.656-2.344L203.312,48h28.32l-0.344,7.641c-0.102,2.18,0.703,4.313,2.211,5.891
			c1.508,1.578,3.594,2.469,5.781,2.469h32.719h24v88h-16h-80H151.999z M138.241,280.883c0-24.563,8.961-48.352,25.219-66.977
			L203.632,168h72.734l40.18,45.906c36.102,41.25,33.203,103.109-6.602,140.844c-2.07,1.953-4.086,3.711-6.016,5.25h-63.93
			c-4.422,0-8,3.578-8,8v8h-28.094c-12.492-4.695-23.875-11.844-33.844-21.242C149.843,335.594,138.241,308.672,138.241,280.883z
			 M311.55,444.239l-9.895-9.895c-1.938-1.93-4.727-2.742-7.391-2.156l-68.406,15.203L135.999,380v-4h22.461l38.57,15.43
			c0.945,0.375,1.953,0.57,2.969,0.57h2.477h30.998c3.313,9.292,12.11,16,22.525,16h24v-16h-24c-4.414,0-8-3.586-8-8v-8h58.641
			h18.047l24.421,24.421L311.55,444.239z M331.312,464l-8.421-8.421l37.558-43.817L412.687,464H331.312z"/>
	</g>
</g>
<g>
	<g>
		<path d="M239.999,256c-13.234,0-24-10.766-24-24s10.766-24,24-24s24,10.766,24,24h16c0-19.315-13.766-35.474-32-39.191V176h-16
			v16.809c-18.234,3.717-32,19.876-32,39.191c0,22.055,17.945,40,40,40c13.234,0,24,10.766,24,24s-10.766,24-24,24s-24-10.766-24-24
			h-16c0,19.315,13.766,35.474,32,39.191V352h16v-16.809c18.234-3.717,32-19.876,32-39.191C279.999,273.945,262.054,256,239.999,256
			z"/>
	</g>
</g>
<g>
	<g>
		<rect x="167.999" y="256" width="16" height="16"/>
	</g>
</g>
<g>
	<g>
		<rect x="295.999" y="256" width="16" height="16"/>
	</g>
</g>
<g>
</g>
<g>
</g>
<g>
</g>
<g>
</g>
<g>
</g>
<g>
</g>
<g>
</g>
<g>
</g>
<g>
</g>
<g>
</g>
<g>
</g>
<g>
</g>
<g>
</g>
<g>
</g>
<g>
</g>
</svg>
