<svg id="outline" enable-background="new 0 0 512 512" height="512" viewBox="0 0 512 512" width="512" xmlns="http://www.w3.org/2000/svg"><path d="m160 272h192c4.418457 0 8-3.5820313 8-8s-3.581543-8-8-8h-192c-4.418457 0-8 3.5820313-8 8s3.581543 8 8 8z"/><path d="m160 240h192c4.418457 0 8-3.5820313 8-8s-3.581543-8-8-8h-192c-4.418457 0-8 3.5820313-8 8s3.581543 8 8 8z"/><path d="m224 208h128c4.418457 0 8-3.5820313 8-8s-3.581543-8-8-8h-128c-4.418457 0-8 3.5820313-8 8s3.581543 8 8 8z"/><path d="m360 296c0-4.4179688-3.581543-8-8-8h-192c-4.418457 0-8 3.5820313-8 8s3.581543 8 8 8h192c4.418457 0 8-3.5820312 8-8z"/><path d="m240 384c-4.418457 0-8 3.5820313-8 8s3.581543 8 8 8h48c4.418457 0 8-3.5820313 8-8s-3.581543-8-8-8z"/><path d="m312 352h-72c-4.418457 0-8 3.5820313-8 8s3.581543 8 8 8h72c4.418457 0 8-3.5820313 8-8s-3.581543-8-8-8z"/><path d="m320 328c0-4.4179688-3.581543-8-8-8h-88c-4.418457 0-8 3.5820313-8 8s3.581543 8 8 8h88c4.418457 0 8-3.5820312 8-8z"/><path d="m296 424c0-4.4179688-3.581543-8-8-8h-48c-4.418457 0-8 3.5820313-8 8s3.581543 8 8 8h48c4.418457 0 8-3.5820312 8-8z"/><path d="m504 304h-4.6864014l3.7030029-3.703125c5.7089844-5.7089844 8.9833985-13.6025391 8.9833985-21.6572266 0-8.1728516-3.1904297-15.8642578-8.9833984-21.6572266-5.7924805-5.7919921-13.4838868-8.9824218-21.6567383-8.9824218-8.0546875 0-15.9482422 3.2744141-21.6567383 8.9824219l-17.3598633 17.3603516-18.3432617 18.3432617v-172.6860352c0-4.4179688-3.581543-8-8-8h-56v-56h-.019104c-.0006714-2.0810547-.7942505-4.1274414-2.3241577-5.6572266l-48-48c-1.5-1.5-3.5351563-2.3427734-5.6567383-2.3427734h-96v.0004883c-2.0473633 0-4.0947266.7807617-5.6567383 2.3422852l-48 48c-1.5004883 1.5009765-2.3432617 3.5351562-2.3432617 5.6572265v44.6860352l-18.3432617-18.3432617c-1.5-1.5000001-3.5351563-2.3427735-5.6567383-2.3427735h-88-32c-4.418457 0-8 3.5820313-8 8v80c0 4.4179688 3.581543 8 8 8h32 20.6865234l24.6977539 24.6982422c.8314209.8310547 1.7128296 1.5678711 2.6157227 2.2556152v109.0461426h-40c-2.6547852 0-5.1362305 1.3164063-6.6245117 3.5146484s-1.7890625 4.9921875-.8032227 7.4560547l11.6113282 29.0292969h-.9038086c-9.2744141 0-18.3632813 3.7695313-24.9365234 10.3427734s-10.3432618 15.6621094-10.3432618 24.9365235v97.4072266l-13.6567383 13.65625c-2.2880859 2.2880859-2.9726563 5.7294922-1.734375 8.71875s4.1552735 4.9384765 7.3911133 4.9384765h112 112 184c4.418457 0 8-3.5820313 8-8v-76.6860352l27.3139648-27.3139648h20.6860352 32c4.418457 0 8-3.5820313 8-8v-80c0-4.4179687-3.581543-8-8-8zm-472-144h-16v-64h16zm439.0166016 108.296875c2.7304687-2.7304687 6.5004882-4.296875 10.3432617-4.296875 3.8994141 0 7.5722656 1.5253906 10.3432617 4.296875 2.7709961 2.7705078 4.296875 6.4443359 4.296875 10.3427734 0 3.8427734-1.5664063 7.6123047-4.296875 10.3427734l-11.703186 11.7036133-20.6860352-20.6860351zm-23.0166016 23.0166016 20.6860352 20.6865234-116.685791 116.6862793-20.6862794-20.6862793zm-123.086853 132.9135742 10.8599854 10.8601074-13.5748901 2.7145996zm27.086853-59.5410156v-25.3725586l19.3134766-19.3134766h25.3725586zm-88-300.6860352h80v80h-80zm68.6865234-16h-73.3730469l-31.9996338-32h73.3726807zm-164.6865234 11.3134766 40-40 40 40v84.6865234h-16v-72c0-13.2333984-10.7661133-24-24-24s-24 10.7666016-24 24v72h-16zm48 84.6865234h-16v-72c0-4.4111328 3.5888672-8 8-8s8 3.5888672 8 8zm-146.3432617 18.3427734c-1.5-1.5-3.5351563-2.3427734-5.6567383-2.3427734h-16v-64h76.6865234l16 16h-44.6865234c-4.418457 0-8 3.5820313-8 8v32c0 2.1220703.8427734 4.15625 2.3432617 5.6572266l19.0410156 19.0400391c1.6865235 1.6865234 2.6157227 3.9394531 2.6157227 6.3427734 0 2.3681641-.9536133 4.6796875-2.6166992 6.3427734s-3.9750977 2.6171875-6.3432617 2.6171875c-1.2568359 0-2.5678711-.2871094-3.8505859-.8574219-.8476563-.3681641-1.7099609-.9775391-2.4926758-1.7597656zm46.5473633 165.6572266-1.6248169 4.0805664c-7.4008179 5.3261719-13.5255738 12.1176758-17.9887696 19.9194336h-27.1744384l-9.5996704-24zm35.7958984 104c-26.4672775 0-47.9999924-21.5322266-48-47.9999695-.0000076-17.3974304 9.9000473-33.9559326 25.1805573-42.242157 6.9824218-3.7864074 14.8797454-5.7578735 22.8194427-5.7578735 26.4672852 0 48 21.5322266 48 48s-21.5327148 48-48 48zm-122.3432617 61.6572266c1.5004883-1.5009766 2.3432617-3.5351563 2.3432617-5.6572266v-100.7207031c0-5.0625 2.0620117-10.0273438 5.6567383-13.6220703 3.5952148-3.5957032 8.5605469-5.6572266 13.6230469-5.6572266h12.7202148 4.6860352l-10.3427734 10.3427734c-3.1245117 3.125-3.1245117 8.1894531 0 11.3144531 1.5620116 1.5615235 3.6093749 2.3427735 5.6567382 2.3427735s4.0947266-.78125 5.6567383-2.3427734l18.3432617-18.34375 1.0657349 1.065918c-.6963501 3.791748-1.0657349 7.6677245-1.0657349 11.6206054 0 19.1015625 8.4221191 36.2634277 21.7355347 48h-13.7355347c-4.418457 0-8 3.5820313-8 8v32c0 4.4179688 3.581543 8 8 8h16v16h-84.6860352zm74.3432617-29.6572266v-16h96v16zm120 32h-96v-16h96zm16 0v-24c0-4.4179688-3.581543-8-8-8h-16v-24c0-4.4179688-3.581543-8-8-8h-13.7355347c13.3134156-11.7365723 21.7355347-28.8984375 21.7355347-48 0-35.2900391-28.7104492-64-64-64-5.546936 0-11.0117188.7084961-16.2817993 2.0893555.6049805-2.2341309.2189941-4.638916-1.0971069-6.5795898-1.4887696-2.1953126-3.96875-3.5097657-6.6210938-3.5097657h-24v-104.0241699c6.2424316-.2451172 12.2817383-2.8640137 16.6967773-7.2785645 4.6411133-4.6416015 7.3032227-11.0771484 7.3032227-17.6572265 0-6.6777344-2.59375-12.9492188-7.3032227-17.6572266l-16.6967773-16.6962891v-20.6865234h48v24c0 4.4179688 3.581543 8 8 8h96 96c4.418457 0 8-3.5820313 8-8v-24h48v176h-40c-2.121582 0-4.1567383.8427734-5.6567383 2.3427734l-24 24c-1.5004883 1.5009766-2.3432617 3.5351563-2.3432617 5.6572266v44.6860352l-21.6567383 21.6567383c-1.1166992 1.1171875-1.878418 2.5400391-2.1879883 4.0878906l-8 40c-.5244141 2.6230469.2963867 5.3349609 2.1879883 7.2265625 1.5151367 1.5146484 3.5561524 2.3427734 5.6567383 2.3427734.5214844 0 1.046875-.0507813 1.5688477-.1552734l40-8c1.5488281-.3095703 2.9711914-1.0712891 4.0878906-2.1875l34.3432617-34.3432618 16 16v68.6860352zm208-112c-2.121582 0-4.1567383.8427734-5.6567383 2.3427734l-26.3432617 26.34375-12.6860962-12.6865234 60.6860962-60.6860352v44.6860352zm48 0h-16v-60.6860352l3.3139648-3.3139648h12.6860352z"/><path d="m304 80c-13.2338867 0-24 10.7666016-24 24v16c0 4.4179688 3.581543 8 8 8h32c4.418457 0 8-3.5820313 8-8v-16c0-13.2333984-10.7661133-24-24-24zm8 32h-16v-8c0-4.4111328 3.5888672-8 8-8s8 3.5888672 8 8z"/><path d="m384 464h-104c-4.418457 0-8 3.5820313-8 8s3.581543 8 8 8h104c4.418457 0 8-3.5820313 8-8s-3.581543-8-8-8z"/><path d="m148 368h20c4.418457 0 8-3.5820313 8-8s-3.581543-8-8-8h-8c0-4.4179688-3.581543-8-8-8s-8 3.5820313-8 8v.4030762c-9.1176758 1.8583984-16 9.9382324-16 19.5969238 0 11.0283203 8.972168 20 20 20h8c2.2055664 0 4 1.7939453 4 4s-1.7944336 4-4 4h-20c-4.418457 0-8 3.5820313-8 8s3.581543 8 8 8h8c0 4.4179688 3.581543 8 8 8s8-3.5820313 8-8v-.4030762c9.1176758-1.8583984 16-9.9382324 16-19.5969238 0-11.0283203-8.972168-20-20-20h-8c-2.2055664 0-4-1.7939453-4-4s1.7944336-4 4-4z"/></svg>